# AST/ASF file generated using VICON BodyLanguage
# -----------------------------------------------
:version 1.10
:name VICON
:units
  mass 1.0
  length 0.45
  angle deg
:documentation
   .ast/.asf automatically generated from VICON data using
   VICON BodyBuilder and BodyLanguage model FoxedUp or BRILLIANT.MOD
:root
   order TX TY TZ RX RY RZ
   axis XYZ
   position 0 0 0  
   orientation 0 0 0 
:bonedata
  begin
     id 1 
     name lhipjoint
     direction 0.650112 -0.723553 0.232005 
     length 2.45805 
     axis 0 0 0  XYZ
  end
  begin
     id 2 
     name lfemur
     direction 0.34202 -0.939693 0  
     length 7.00073  
     axis 0 0 20  XYZ
    dof rx ry rz
    limits (-160.0 20.0)
           (-70.0 70.0)
           (-60.0 70.0)
  end
  begin
     id 3 
     name ltibia
     direction 0.34202 -0.939693 0   
     length 7.8748   
     axis 0 0 20   XYZ
    dof rx
    limits (-10.0 170.0)
  end
  begin
     id 4 
     name lfoot
     direction 0.0542825 -0.14914 0.987325   
     length 1.75978   
     axis -90 7.62852e-016 20   XYZ
    dof rx rz
    limits (-45.0 90.0)
           (-70.0 20.0)
  end
  begin
     id 5 
     name ltoes
     direction 1.53509e-011 -4.21906e-011 1   
     length 0.893912   
     axis -90 7.62852e-016 20   XYZ
    dof rx
    limits (-90.0 20.0)
  end
  begin
     id 6 
     name rhipjoint
     direction -0.637897 -0.733345 0.235145   
     length 2.42522  
     axis 0 0 0  XYZ 
  end
  begin
     id 7 
     name rfemur
     direction -0.34202 -0.939693 0   
     length 7.02549   
     axis 0 0 -20   XYZ
    dof rx ry rz
    limits (-160.0 20.0)
           (-70.0 70.0)
           (-70.0 60.0)
  end
  begin
     id 8 
     name rtibia
     direction -0.34202 -0.939693 0   
     length 7.71512   
     axis 0 0 -20   XYZ
    dof rx
    limits (-10.0 170.0)
 end
 begin
     id 9 
     name rfoot
     direction -0.0822618 -0.226012 0.970645   
     length 1.90014  
     axis -90 -7.62852e-016 -20   XYZ
    dof rx rz
    limits (-45.0 90.0)
           (-20.0 70.0)
  end
  begin
     id 10 
     name rtoes
     direction -1.53542e-011 -4.21872e-011 1   
     length 0.957341   
     axis -90 -7.62852e-016 -20   XYZ
    dof rx
    limits (-90.0 20.0)
  end
  begin
     id 11 
     name lowerback
     direction -0.0022947 0.999774 -0.0211557   
     length 1.89909   
     axis 0 0 0   XYZ
    dof rx ry rz
    limits (-20.0 45.0)
           (-30.0 30.0)
           (-30.0 30.0)
  end
  begin
     id 12 
     name upperback
     direction 0.0107737 0.998635 0.0511027   
     length 1.8853   
     axis 0 0 0   XYZ
    dof rx ry rz
    limits (-20.0 45.0)
           (-30.0 30.0)
           (-30.0 30.0)
  end
  begin
     id 13 
     name thorax
     direction 0.011824 0.998136 0.0598754   
     length 1.88911   
     axis 0 0 0   XYZ
    dof rx ry rz
    limits (-20.0 45.0)
           (-30.0 30.0)
           (-30.0 30.0)
  end
  begin
     id 14 
     name lowerneck
     direction -0.0685355 0.990319 0.120714   
     length 1.91222   
     axis 0 0 0   XYZ
    dof rx ry rz
    limits (-20.0 45.0)
           (-30.0 30.0)
           (-30.0 30.0)
  end
  begin
     id 15 
     name upperneck
     direction 0.0886204 0.955665 -0.280805   
     length 1.92526   
     axis 0 0 0   XYZ
    dof rx ry rz
    limits (-20.0 45.0)
           (-30.0 30.0)
           (-30.0 30.0)
  end
  begin
     id 16
     name head
     direction 0.0233423 0.993502 -0.111393  
     length 1.96056  
     axis 0 0 0   XYZ
    dof rx ry rz
    limits (-20.0 45.0)
           (-30.0 30.0)
           (-30.0 30.0)
  end
  begin
     id 17 
     name lclavicle
     direction 0.941873 0.32922 0.0670041  
     length 3.31705  
     axis 0 0 0   XYZ
    dof ry rz
    limits (-20.0 10.0)
           (0.0 20.0)
  end
  begin
     id 18 
     name lhumerus
     direction 1 -4.4898e-011 3.38707e-028   
     length 5.29277   
     axis 180 -30 -90   XYZ
    dof rx ry rz
    limits (-60.0 90.0)
           (-90.0 90.0)
           (-90.0 90.0)
  end
  begin
     id 19
     name lradius
     direction 1 -4.48952e-011 1.63213e-028   
     length 2.85226   
     axis 180 -30 -90   XYZ
    dof rx
    limits (-10.0 170.0)
  end
  begin
     id 20
     name lwrist
     direction 1 -4.49001e-011 1.27856e-027   
     length 1.42613   
     axis -1.61767e-015 90 90   XYZ
    dof ry
    limits (-180.0 0.0)
 end
  begin
     id 21 
     name lhand
     direction 1 -4.48976e-011 2.55931e-027   
     length 0.602097   
     axis -1.63363e-015 90 90   XYZ
    dof rx rz
    limits (-90.0 90.0)
           (-45.0 45.0)
  end
  begin
     id 22 
     name lfingers
     direction 1 -4.48986e-011 5.11684e-027   
     length 0.485426   
     axis -3.26723e-015 90 90   XYZ
    dof rx
    limits (0.0 90.0)
  end
  begin
     id 23
     name lthumb
     direction 0.707107 -6.34915e-011 0.707107   
     length 0.696978   
     axis -90 45 -2.25915e-014   XYZ
    dof rx rz
    limits (-45.0 45.0)
           (-45.0 45.0)
  end
  begin
     id 24 
     name rclavicle
     direction -0.939974 0.327078 0.0973096   
     length 3.10337  
     axis 0 0 0   XYZ 
    dof ry rz
    limits (-10.0 20.0)
           (-20.0 0.0)
  end
  begin
     id 25 
     name rhumerus
     direction -1 -4.48975e-011 1.83745e-027  
     length 5.13304   
     axis 180 30 90   XYZ
    dof rx ry rz
    limits (-90.0 60.0)
           (-90.0 90.0)
           (-90.0 90.0)
  end
  begin
     id 26 
     name rradius
     direction -1 -4.48977e-011 7.1775e-029   
     length 2.74305   
     axis 180 30 90   XYZ
    dof rx
    limits (-10.0 170.0)
  end
  begin
     id 27 
     name rwrist
     direction -1 -4.48977e-011 1.27963e-027   
     length 1.37152   
     axis -1.61767e-015 -90 -90   XYZ
    dof ry
    limits (-180.0 0.0)
  end
  begin
     id 28
     name rhand
     direction -1 -4.4888e-011 2.56782e-027   
     length 0.767976   
     axis -1.63363e-015 -90 -90   XYZ
    dof rx rz
    limits (-90.0 90.0)
           (-45.0 45.0)
  end
  begin
     id 29
     name rfingers
     direction -1 -4.48947e-011 5.12384e-027   
     length 0.619162   
     axis -3.26723e-015 -90 -90   XYZ
    dof rx
    limits (0.0 90.0)
  end
  begin
     id 30
     name rthumb
     direction -0.707107 -6.34857e-011 0.707107   
     length 0.888997   
     axis -90 -45 2.25915e-014   XYZ
    dof rx rz
    limits (-45.0 45.0)
           (-45.0 45.0)
  end
:hierarchy
  begin
    root lhipjoint rhipjoint lowerback
    lhipjoint lfemur
    lfemur ltibia
    ltibia lfoot
    lfoot ltoes
    rhipjoint rfemur
    rfemur rtibia
    rtibia rfoot
    rfoot rtoes
    lowerback upperback
    upperback thorax
    thorax lowerneck lclavicle rclavicle
    lowerneck upperneck
    upperneck head
    lclavicle lhumerus
    lhumerus lradius
    lradius lwrist
    lwrist lhand lthumb
    lhand lfingers
    rclavicle rhumerus
    rhumerus rradius
    rradius rwrist
    rwrist rhand rthumb
    rhand rfingers
  end

#!OML:ASF F:\VICON\USERDATA\INSTALL\rory3\rory3.ASF
:FULLY-SPECIFIED
:DEGREES
1788
root 1.11807 16.7208 -0.982444 -3.46348 7.34988 -10.037
lowerback 7.93868 5.98387 -4.70779
upperback 9.50768 7.70406 4.71791
thorax 4.29829 3.48051 7.19582
lowerneck 2.0049 -15.161 -17.4893
upperneck 9.64168 -24.9243 33.1467
head 9.71936 -11.8201 11.6486
rclavicle -1.22253e-014 1.17283e-014
rhumerus 47.6682 14.9308 -94.9531
rradius 79.2375
rwrist -37.674
rhand -32.2887 -4.59014
rfingers 7.12502
rthumb -5.52745 -34.4981
lclavicle -1.22253e-014 1.17283e-014
lhumerus 79.9882 -7.60151 0.274811
lradius 65.838
lwrist 67.4401
lhand -15.229 39.0458
lfingers 7.12502
lthumb 10.9439 -291.259
rfemur -7.19958 -3.25297 24.5614
rtibia 28.3189
rfoot -20.0298 -6.11077
rtoes -26.9844
lfemur -18.6242 -10.3759 -11.0836
ltibia 45.4742
lfoot -22.7829 -1.03196
ltoes -15.5717
1789
root 1.14726 16.7231 -0.986723 -3.37068 7.19118 -9.85744
lowerback 7.94877 5.90889 -4.75086
upperback 9.524 7.5986 4.84232
thorax 4.30647 3.42047 7.3611
lowerneck 1.87471 -15.1097 -17.6312
upperneck 9.72721 -24.7806 32.7718
head 9.67304 -11.7462 11.5372
rclavicle 5.71506e-014 -3.1408e-014
rhumerus 47.5525 15.0851 -94.8049
rradius 79.3602
rwrist -37.9563
rhand -32.4847 -5.64151
rfingers 7.12502
rthumb -5.71667 -35.5444
lclavicle 5.71506e-014 -3.1408e-014
lhumerus 79.8741 -7.39072 -0.703306
lradius 66.29
lwrist 68.5849
lhand -14.2543 39.4268
lfingers 7.12502
lthumb 11.8839 -290.931
rfemur -7.31956 -3.0965 24.2745
rtibia 28.381
rfoot -19.9352 -6.12157
rtoes -27.2259
lfemur -18.6025 -10.2952 -11.3901
ltibia 45.4004
lfoot -22.8037 -0.933805
ltoes -15.7373
1790
root 1.17619 16.7233 -0.993579 -3.33905 7.0942 -9.72662
lowerback 8.1564 5.92897 -4.60498
upperback 9.45721 7.62084 4.89755
thorax 4.12539 3.44709 7.30731
lowerneck 1.94423 -15.1578 -17.6041
upperneck 9.68844 -24.7815 32.4852
head 9.58265 -11.7567 11.4108
rclavicle 1.54307e-014 3.13583e-014
rhumerus 47.3039 14.7589 -94.8219
rradius 79.4199
rwrist -38.0849
rhand -32.5668 -5.11573
rfingers 7.12502
rthumb -5.79594 -35.0165
lclavicle 1.54307e-014 3.13583e-014
lhumerus 80.1742 -7.35272 -1.39127
lradius 66.6376
lwrist 69.4129
lhand -16.4673 39.5697
lfingers 7.12502
lthumb 9.74934 -290.676
rfemur -7.3827 -3.01223 24.0244
rtibia 28.437
rfoot -19.8993 -6.06691
rtoes -27.1531
lfemur -18.5666 -10.2526 -11.6531
ltibia 45.3296
lfoot -22.7605 -0.852315
ltoes -15.6972
1791
root 1.20419 16.7223 -1.00046 -3.27911 6.9745 -9.54246
lowerback 8.33648 6.04211 -4.38364
upperback 9.38475 7.77429 4.81605
thorax 3.95966 3.5465 7.05733
lowerneck 2.04471 -15.2855 -17.3167
upperneck 9.5272 -24.9007 32.3706
head 9.47674 -11.8184 11.2828
rclavicle 8.02096e-014 -2.31584e-014
rhumerus 47.1028 14.1026 -94.9281
rradius 79.4608
rwrist -38.0122
rhand -32.4308 -3.90577
rfingers 7.12502
rthumb -5.66471 -33.8101
lclavicle 8.02096e-014 -2.31584e-014
lhumerus 80.8959 -7.28382 -2.18515
lradius 66.7142
lwrist 69.869
lhand -17.4556 39.7518
lfingers 7.12502
lthumb 8.79567 -290.452
rfemur -7.46618 -2.96373 23.7241
rtibia 28.4828
rfoot -19.8876 -6.09545
rtoes -27.6077
lfemur -18.5267 -10.1719 -11.9609
ltibia 45.2398
lfoot -22.7027 -0.835159
ltoes -15.577
1792
root 1.23044 16.7235 -1.00533 -3.20845 6.81983 -9.44165
lowerback 8.40605 6.05007 -4.13679
upperback 9.34411 7.7926 4.76693
thorax 3.90965 3.57234 6.85554
lowerneck 2.04144 -15.3237 -17.108
upperneck 9.48205 -24.8919 32.1475
head 9.38247 -11.8106 11.1527
rclavicle -6.21202e-015 1.43373e-014
rhumerus 47.066 13.811 -94.7839
rradius 79.4748
rwrist -37.9695
rhand -32.7553 -3.61667
rfingers 7.12502
rthumb -5.97795 -33.5123
lclavicle -6.21202e-015 1.43373e-014
lhumerus 81.3628 -7.26022 -3.07608
lradius 66.7308
lwrist 70.3038
lhand -18.2526 39.6047
lfingers 7.12502
lthumb 8.02657 -290.568
rfemur -7.53871 -2.81602 23.5332
rtibia 28.4878
rfoot -19.8291 -6.11794
rtoes -27.7488
lfemur -18.5027 -10.0607 -12.1603
ltibia 45.1545
lfoot -22.5836 -0.878056
ltoes -15.1643
1793
root 1.25662 16.7255 -1.01003 -3.11951 6.66603 -9.2749
lowerback 8.45031 6.00056 -4.04476
upperback 9.28714 7.72795 4.77013
thorax 3.8436 3.54761 6.80383
lowerneck 2.08236 -15.2613 -17.0966
upperneck 9.50309 -24.7535 31.8925
head 9.28787 -11.7519 11.0821
rclavicle 4.97288e-014 2.41822e-014
rhumerus 46.8715 13.7756 -94.7037
rradius 79.5348
rwrist -37.8384
rhand -33.1536 -3.95815
rfingers 7.12502
rthumb -6.36251 -33.8426
lclavicle 4.97288e-014 2.41822e-014
lhumerus 81.5529 -7.30736 -3.87835
lradius 66.7453
lwrist 70.6907
lhand -18.2579 38.9839
lfingers 7.12502
lthumb 8.02138 -291.188
rfemur -7.61058 -2.65866 23.2703
rtibia 28.4628
rfoot -19.7472 -6.10886
rtoes -27.9889
lfemur -18.4935 -9.92229 -12.4359
ltibia 45.0634
lfoot -22.4792 -0.699226
ltoes -15.0827
